<?xml version="1.0" encoding="utf-8"?>
<!-- Generator: Adobe Illustrator 21.0.2, SVG Export Plug-In . SVG Version: 6.00 Build 0)  -->
<svg version="1.1" id="Layer_1" xmlns="http://www.w3.org/2000/svg" xmlns:xlink="http://www.w3.org/1999/xlink" x="0px" y="0px"
	 viewBox="0 0 54.2 55.9" style="enable-background:new 0 0 54.2 55.9;" xml:space="preserve">
<style type="text/css">
	.st0{fill:none;stroke:#6D9B32;stroke-width:2;stroke-linecap:round;stroke-miterlimit:10;}
	.st1{display:none;}
	.st2{display:inline;fill:none;stroke:#6D9B32;stroke-width:2;stroke-linecap:round;stroke-miterlimit:10;}
	.st3{fill:none;stroke:#2A2A2A;stroke-width:2.5;stroke-miterlimit:10;}
	.st4{fill:#2A2A2A;}
</style>
<g>
	<path class="st0" d="M266.8,91.7c2.3-3.7,2.1-8.9,2.1-8.9c-1.1-13.7-7.5-13.2-7.5-13.2s-6.4-0.5-7.5,13.2c0,0-0.2,5.2,2.1,8.9"/>
	<path class="st0" d="M266.2,92.5c-1.1,1.4-2.9,2.3-4.8,2.3s-3.7-0.9-4.8-2.3"/>
	<path class="st0" d="M256.6,92.5c-0.2-0.3-0.4-0.5-0.6-0.8C256.2,92,256.4,92.3,256.6,92.5z"/>
	<path class="st0" d="M266.8,91.7c-0.2,0.3-0.4,0.6-0.6,0.8C266.4,92.3,266.6,92,266.8,91.7z"/>
	<path class="st0" d="M255.5,74.9c0,0,1.1,0.9,2.9,1.3"/>
	<path class="st0" d="M255,88.9c0,0,1.3,0.9,2.6,1.2"/>
	<path class="st0" d="M268.7,86c0,0-0.9,0.5-2.2,0.7"/>
	<path class="st0" d="M263.2,81.8c0,0,0.7,0.1,2.2-0.1"/>
	<path class="st0" d="M257.7,84.9c0,0,0.8,0.3,2,0.3"/>
</g>
<g>
	<path class="st0" d="M292.3,91.7c2.3-3.7,2.1-8.9,2.1-8.9c-1.1-13.7-7.5-13.2-7.5-13.2s-6.4-0.5-7.5,13.2c0,0-0.2,5.2,2.1,8.9"/>
	<path class="st0" d="M291.7,92.5c-1.1,1.4-2.9,2.3-4.8,2.3s-3.7-0.9-4.8-2.3"/>
	<path class="st0" d="M282.1,92.5c-0.2-0.3-0.4-0.5-0.6-0.8C281.7,92,281.9,92.3,282.1,92.5z"/>
	<path class="st0" d="M292.3,91.7c-0.2,0.3-0.4,0.6-0.6,0.8C291.9,92.3,292.1,92,292.3,91.7z"/>
	<circle class="st0" cx="287.1" cy="89.5" r="0.5"/>
	<circle class="st0" cx="290.4" cy="87" r="0"/>
	<circle class="st0" cx="287.1" cy="83.5" r="0"/>
	<circle class="st0" cx="284.6" cy="76.4" r="0.1"/>
</g>
<g class="st1">
	<path class="st2" d="M33.6,55.3c3.6,1,7.8-0.3,7.8-0.3c11-4.1,9.1-9.3,9.1-9.3s-1.1-5.4-12.6-3.1c0,0-4.3,1-6.8,3.8"/>
	<path class="st2" d="M32.8,55c-1.4-0.6-2.5-1.8-3-3.4c-0.5-1.6-0.1-3.2,0.7-4.5"/>
	<path class="st2" d="M30.6,47.1c0.2-0.2,0.4-0.5,0.5-0.7C30.9,46.6,30.7,46.9,30.6,47.1z"/>
	<path class="st2" d="M33.6,55.3c-0.3-0.1-0.6-0.2-0.8-0.3C33.1,55.1,33.4,55.2,33.6,55.3z"/>
	<ellipse transform="matrix(0.9617 -0.274 0.274 0.9617 -12.5208 11.3223)" class="st2" cx="34.3" cy="50.5" rx="0.4" ry="0.4"/>
	<ellipse transform="matrix(0.9617 -0.274 0.274 0.9617 -12.9938 12.1583)" class="st2" cx="37" cy="52.6" rx="0" ry="0"/>
	<ellipse transform="matrix(0.9617 -0.274 0.274 0.9617 -11.9491 12.6194)" class="st2" cx="39.2" cy="49.1" rx="0" ry="0"/>
	<ellipse transform="matrix(0.9617 -0.274 0.274 0.9617 -10.7277 13.9123)" class="st2" cx="44.4" cy="45.4" rx="0.1" ry="0.1"/>
</g>
<g>
	<path class="st3" d="M27.1,28.7"/>
</g>
<g>
	<path class="st4" d="M27.1,55.9H11.7c-1.6,0-2.9-1.1-3.2-2.6L3.8,28.9l2.5-0.5L11,52.8c0.1,0.4,0.4,0.6,0.7,0.6h15.3V55.9z"/>
</g>
<g>
	<path class="st4" d="M29.4,29.9H3.3c-1.8,0-3.3-1.5-3.3-3.3v-3.3c0-1.8,1.5-3.3,3.3-3.3h16.9c0.7,0,1.3,0.6,1.3,1.3
		s-0.6,1.3-1.3,1.3H3.3c-0.4,0-0.8,0.3-0.8,0.8v3.3c0,0.4,0.3,0.8,0.8,0.8h26.2c0.7,0,1.3,0.6,1.3,1.3S30.1,29.9,29.4,29.9z"/>
</g>
<g>
	<path class="st4" d="M42.4,55.9H27.1v-2.5h15.3c0.4,0,0.7-0.3,0.7-0.6l4.5-22.9H27.1v-2.5h23.6l-5.1,25.9
		C45.3,54.8,44,55.9,42.4,55.9z"/>
</g>
<g>
	<path class="st4" d="M50.9,29.9h-1.2c-0.7,0-1.3-0.6-1.3-1.3s0.6-1.3,1.3-1.3h1.2c0.4,0,0.8-0.3,0.8-0.8v-3.3
		c0-0.4-0.3-0.8-0.8-0.8H33.7c-0.7,0-1.3-0.6-1.3-1.3s0.6-1.3,1.3-1.3h17.2c1.8,0,3.3,1.5,3.3,3.3v3.3
		C54.2,28.5,52.7,29.9,50.9,29.9z"/>
</g>
<g>
	<path class="st3" d="M24.7,28.7"/>
</g>
<g>
	<path class="st4" d="M48.4,13.2c-0.6,0-1.2-0.5-1.2-1.1c-0.1-0.7,0.4-1.3,1.1-1.4c0.2,0,0.5-0.1,0.6-0.1c-0.3-0.1-0.5-0.3-0.6-0.6
		c-0.1-0.3-0.2-0.6-0.1-0.9c-0.3,0.1-0.6,0.1-0.9,0c-0.3-0.1-0.5-0.3-0.6-0.5c0,0.2,0,0.4,0,0.6c0,0.7-0.5,1.3-1.2,1.3c0,0,0,0,0,0
		c-0.7,0-1.2-0.5-1.2-1.2c0-0.8,0.1-1.4,0.1-1.5c0.3-2.2,1.1-3,1.5-3.2c0.4-0.2,0.8-0.3,1.2-0.1c0.3,0.1,0.8,0.5,1.4,1.6
		c1.1-0.5,1.8-0.5,2.1-0.4c0.4,0.1,0.7,0.4,0.9,0.8c0.1,0.3,0.3,1-0.1,2.1c1.1,0.4,1.6,0.9,1.7,1.2c0.2,0.4,0.3,0.8,0.1,1.2
		c-0.2,0.4-0.8,1.3-3.1,1.9l0,0c0,0-0.5,0.2-1.4,0.3C48.5,13.2,48.5,13.2,48.4,13.2z M50.9,11.2L50.9,11.2L50.9,11.2z M48.9,7.2
		L48.9,7.2L48.9,7.2z M45.8,6.8L45.8,6.8L45.8,6.8z"/>
</g>
<g>
	<path class="st4" d="M39.5,18.3c-0.3,0-0.6-0.1-0.9-0.4c-2.3-2.2-3-3.8-3.1-3.9c-0.3-0.6,0-1.4,0.6-1.7c0.6-0.3,1.4,0,1.6,0.6
		c0,0,0.7,1.3,2.5,3.2c0.5,0.5,0.5,1.3,0,1.8C40.2,18.2,39.8,18.3,39.5,18.3z"/>
</g>
<g>
	<path class="st4" d="M48.6,18.7c-0.2,0-0.3,0-0.5-0.1c-0.6-0.3-0.9-1-0.7-1.6c0.2-0.4,0.3-0.7,0.3-1.1c0,0,0.2-1-0.1-1.9
		c-0.2-1-0.8-1.9-1.5-2.5c-2-1.8-5.1-1.5-6.8,0.5l0,0c0,0-1.9,2.4-4.6,6.2c-0.4,0.6-1.2,0.7-1.7,0.3c-0.6-0.4-0.7-1.2-0.3-1.7
		c2.8-3.9,4.6-6.2,4.7-6.3c1.3-1.5,3.1-2.4,5.1-2.5c2-0.1,3.9,0.5,5.3,1.8c1.2,1,2,2.3,2.3,3.8c0.3,1.4,0.1,2.7,0.1,2.9
		c-0.1,0.6-0.3,1.1-0.5,1.7C49.5,18.4,49.1,18.7,48.6,18.7z"/>
</g>
<g>
	<path class="st4" d="M5.9,18.7c-0.1,0-0.2,0-0.3,0c-0.7-0.2-1-0.9-0.9-1.5c0.4-1.3,1.1-2.4,2.2-3.2c0-0.1-0.1-0.2-0.1-0.3
		c-0.2-1,0.1-2,0.7-2.8C8,10,8.8,9.5,9.7,9.3c0.5-3.6,3.3-6.5,7-7.1C18,2,19.3,2.1,20.5,2.5c0.7,0.2,1,0.9,0.8,1.6
		c-0.2,0.7-0.9,1-1.6,0.8c-0.9-0.3-1.8-0.3-2.7-0.2c-2.9,0.5-5,2.9-5,5.8c0,0.4-0.2,0.7-0.4,0.9c-0.3,0.2-0.6,0.3-1,0.3
		c-0.2,0-0.3,0-0.4,0c-0.3,0.1-0.6,0.2-0.8,0.5c-0.2,0.3-0.3,0.6-0.2,0.9c0,0.2,0.1,0.3,0.2,0.5c0.2,0.3,0.3,0.7,0.2,1
		S9.3,15.3,9,15.5c-0.9,0.5-1.6,1.3-1.9,2.3C6.9,18.4,6.4,18.7,5.9,18.7z"/>
</g>
<g>
	<path class="st4" d="M36,9.7c-0.2,0-0.4,0-0.5-0.1c-0.2-0.1-0.5-0.2-0.7-0.3c-0.6-0.2-1-0.8-0.9-1.4c0-0.2,0-0.4,0-0.6
		c-0.1-0.5-0.4-1-0.9-1.3c-0.6-0.4-0.8-1.1-0.4-1.7c0.4-0.6,1.1-0.8,1.7-0.4c1.1,0.7,1.8,1.8,2,3c0,0.1,0,0.2,0,0.3
		c0.1,0,0.1,0,0.2,0.1c0.6,0.3,0.9,1,0.6,1.7C37,9.4,36.5,9.7,36,9.7z"/>
</g>
<g>
	<path class="st4" d="M14.4,11.4c-0.6,0-1.1-0.4-1.2-1c-0.4-2.3,1.2-4.4,3.5-4.8c0.7-0.1,1.3,0.4,1.4,1c0.1,0.7-0.4,1.3-1,1.4
		c-0.9,0.1-1.5,1-1.4,1.9c0.1,0.7-0.4,1.3-1,1.4C14.5,11.4,14.4,11.4,14.4,11.4z"/>
</g>
<g>
	<path class="st4" d="M14.1,18.7C14.1,18.7,14.1,18.7,14.1,18.7c-0.7,0-1.3-0.6-1.3-1.3c0-3.1,2.2-5.7,5.3-6.2
		c0.7-0.1,1.3,0.4,1.4,1c0.1,0.7-0.4,1.3-1,1.4c-1.8,0.3-3.2,1.9-3.2,3.7C15.4,18.2,14.8,18.7,14.1,18.7z"/>
</g>
<g>
	<path class="st4" d="M27.1,50.9c-0.7,0-1.3-0.6-1.3-1.3v-16c0-0.7,0.6-1.3,1.3-1.3s1.3,0.6,1.3,1.3v16
		C28.3,50.4,27.8,50.9,27.1,50.9z"/>
</g>
<g>
	<path class="st4" d="M19.1,50.9c-0.7,0-1.3-0.6-1.3-1.3v-16c0-0.7,0.6-1.3,1.3-1.3s1.3,0.6,1.3,1.3v16
		C20.4,50.4,19.8,50.9,19.1,50.9z"/>
</g>
<g>
	<path class="st4" d="M35.1,50.9c-0.7,0-1.3-0.6-1.3-1.3v-16c0-0.7,0.6-1.3,1.3-1.3s1.3,0.6,1.3,1.3v16
		C36.3,50.4,35.8,50.9,35.1,50.9z"/>
</g>
<g>
	<path class="st4" d="M42.4,38.9H11.7c-0.7,0-1.3-0.6-1.3-1.3s0.6-1.3,1.3-1.3h30.7c0.7,0,1.3,0.6,1.3,1.3S43.1,38.9,42.4,38.9z"/>
</g>
<g>
	<path class="st4" d="M40.9,46.9H13.3c-0.7,0-1.3-0.6-1.3-1.3s0.6-1.3,1.3-1.3h27.5c0.7,0,1.3,0.6,1.3,1.3S41.6,46.9,40.9,46.9z"/>
</g>
<g>
	<path class="st4" d="M28.9,24.9h-3.7c-1.2,0-2.3-1-2.3-2.3V2.3C23,1,24,0,25.3,0h3.7c1.2,0,2.3,1,2.3,2.3v20.4
		C31.2,23.9,30.2,24.9,28.9,24.9z M25.5,22.4h3.2V2.5h-3.2V22.4z M28.9,2.5L28.9,2.5L28.9,2.5z"/>
</g>
</svg>
