<?xml version="1.0" encoding="utf-8"?>
<!-- Generator: Adobe Illustrator 23.0.1, SVG Export Plug-In . SVG Version: 6.00 Build 0)  -->
<svg version="1.1" id="Layer_1" xmlns="http://www.w3.org/2000/svg" xmlns:xlink="http://www.w3.org/1999/xlink" x="0px" y="0px"
	 viewBox="0 0 53.6 47.7" style="enable-background:new 0 0 53.6 47.7;" xml:space="preserve">
<style type="text/css">
	.st0{fill:none;stroke:#16639F;stroke-width:1.7;stroke-miterlimit:10;}
	.st1{fill:none;stroke:#16639F;stroke-width:1.7;stroke-linejoin:round;stroke-miterlimit:10;}
	.st2{fill:none;stroke:#16639F;stroke-width:1.7;stroke-linecap:round;stroke-linejoin:round;stroke-miterlimit:10;}
	.st3{fill:none;stroke:#16639F;stroke-width:1.7;stroke-linecap:round;stroke-miterlimit:10;}
	.st4{fill:none;stroke:#16639F;stroke-width:2;stroke-linecap:round;stroke-miterlimit:10;}
</style>
<path class="st0" d="M-47.4,47h7.5c0.4,0,0.8-0.4,0.8-0.8V21.4c0,0-0.1-3.3-2.2-6.9s-1.9-5.4-1.9-5.4V6h-4.2h-4.2v3.1
	c0,0,0.3,1.7-1.9,5.4s-2.2,6.9-2.2,6.9v24.8c0,0.4,0.4,0.8,0.8,0.8C-54.9,47-47.4,47-47.4,47z"/>
<path class="st1" d="M-43.2,6h1V4.5c0,0-0.1-0.9-0.9-0.9s-4.2,0-4.2,0s-3.4,0-4.2,0s-0.9,0.9-0.9,0.9V6h1"/>
<path class="st0" d="M-54,21.3"/>
<line class="st0" x1="-55.7" y1="22.6" x2="-39" y2="22.6"/>
<line class="st0" x1="-55.7" y1="33.2" x2="-39" y2="33.2"/>
<path class="st2" d="M-48.7,11.3c0.1-0.4,0.2-1,0.2-1.7"/>
<path class="st2" d="M-52.3,19.4c0.1-0.5,0.3-1.2,0.5-2c0.4-1.2,1.2-2.4,1.9-3.5"/>
<path class="st3" d="M11.1,15.7c-0.4-0.4-0.8-0.6-1.1-0.8c-0.7-0.5-0.6-1.4-0.6-1.4v-11c0-0.5-0.4-1-1-1h-1H6.3c-0.5,0-1,0.4-1,1v11
	c0,0,0.1,0.9-0.6,1.4s-2.9,1.8-2.9,4.5v6.9v19.5c0,0.6,0.5,1.1,1.1,1.1h4.4h0.8"/>
<line class="st3" x1="8.2" y1="26.3" x2="1.9" y2="26.3"/>
<line class="st3" x1="8.2" y1="37.7" x2="1.9" y2="37.7"/>
<line class="st0" x1="9.4" y1="9.7" x2="5.4" y2="9.7"/>
<line class="st0" x1="9.4" y1="6.5" x2="5.4" y2="6.5"/>
<path class="st2" d="M24.9,16.9c-1.8-3.1-1.6-4.7-1.6-4.7V9.4h-3.8h-3.8v2.8c0,0,0.3,1.6-1.7,4.9s-2,6.3-2,6.3V46
	c0,0.4,0.4,0.7,0.7,0.7h6.8h2.9"/>
<path class="st1" d="M23.3,9.4h0.9V8c0,0-0.1-0.8-0.8-0.8s-3.8,0-3.8,0s-3.1,0-3.8,0S14.9,8,14.9,8v1.4h0.9"/>
<path class="st0" d="M13.4,23.3"/>
<line class="st2" x1="12" y1="24.5" x2="20.5" y2="24.5"/>
<line class="st2" x1="12" y1="34.2" x2="20.5" y2="34.2"/>
<path class="st2" d="M18.3,14.2c0.1-0.4,0.2-0.9,0.2-1.6"/>
<path class="st2" d="M15,21.6c0.1-0.5,0.3-1.1,0.5-1.8c0.4-1.1,1.1-2.2,1.7-3.2"/>
<path class="st0" d="M-65.2,46.8h4.4c0.6,0,1.1-0.5,1.1-1.1v-20v-6.4c0-2.6-2.2-3.9-2.9-4.5s-0.6-1.4-0.6-1.4v-11c0-0.5-0.4-1-1-1
	h-1.1h-1.1c-0.5,0-1,0.4-1,1v11c0,0,0.1,0.9-0.6,1.4s-2.9,1.8-2.9,4.5v6.9v19.5c0,0.6,0.5,1.1,1.1,1.1
	C-69.6,46.8-65.2,46.8-65.2,46.8z"/>
<line class="st0" x1="-59.7" y1="26.3" x2="-70.7" y2="26.3"/>
<line class="st0" x1="-59.7" y1="37.7" x2="-70.7" y2="37.7"/>
<line class="st0" x1="-63.2" y1="9.7" x2="-67.2" y2="9.7"/>
<line class="st0" x1="-63.2" y1="6.5" x2="-67.2" y2="6.5"/>
<line class="st2" x1="4.7" y1="23.9" x2="4.7" y2="21.4"/>
<path class="st2" d="M4.8,18.9c0.1-0.3,0.3-0.8,0.6-1.1"/>
<line class="st2" x1="-68" y1="23.9" x2="-68" y2="21.4"/>
<path class="st2" d="M-67.9,18.9c0.1-0.3,0.3-0.8,0.6-1.1"/>
<path class="st2" d="M40.8,46.7h3.4h7.4c0.5,0,0.9-0.4,0.9-0.9V24.2c0,0-0.1-2.9-1.3-5c-1.3-2.1-2-2.9-2-5.4s-1.4-5.1-1.4-5.9
	c0,0-0.2-1.4,0.2-2.6c0.4-1-0.2-1.4-0.2-1.4h-3.4H41c0,0-0.6,0.4-0.2,1.4C41.3,6.5,41,7.9,41,7.9c0,0.8-1.4,3.4-1.4,5.9
	c0,1.5-0.3,2.4-0.8,3.3"/>
<path class="st3" d="M42.5,41.5h5c0.5,0,1-0.5,1-1v-13c0-0.6-0.5-1-1-1h-5"/>
<path class="st3" d="M42.2,14.7c0,2.1-0.5,3-1.4,4.5"/>
<path class="st3" d="M42.8,10.8c-0.1,0.4-0.3,0.8-0.3,1.3"/>
<path class="st0" d="M-25.8,46.7h7.4c0.5,0,0.9-0.4,0.9-0.9V24.2c0,0-0.1-2.9-1.3-5s-2-2.9-2-5.4s-1.4-5.1-1.4-5.9
	c0,0-0.2-1.4,0.2-2.6c0.4-1-0.2-1.4-0.2-1.4h-3.4H-29c0,0-0.6,0.4-0.2,1.4c0.5,1.2,0.2,2.6,0.2,2.6c0,0.8-1.4,3.4-1.4,5.9
	s-0.8,3.3-2,5.4c-1.3,2.1-1.3,5-1.3,5v21.7c0,0.5,0.4,0.9,0.9,0.9h7V46.7z"/>
<path class="st0" d="M-22.5,26.5h-6.6c-0.6,0-1,0.4-1,1v13c0,0.5,0.4,1,1,1h6.6c0.5,0,1-0.5,1-1v-13C-21.5,27-21.9,26.5-22.5,26.5z"
	/>
<path class="st3" d="M-27.7,14.7c0,2.5-0.8,3.3-2,5.4"/>
<path class="st3" d="M-27.1,10.8c-0.1,0.4-0.3,0.8-0.3,1.3"/>
<line class="st3" x1="26.2" y1="20.4" x2="24.9" y2="20.4"/>
<path class="st3" d="M31.4,46.7h4.4c0.5,0,1.1-0.2,1.4-0.6l0.8-0.8c0.4-0.4,0.6-0.9,0.6-1.5V33.6V23.3c0-0.5-0.2-1.1-0.6-1.5
	l-1.4-1.4h-5.2h-5.2l-1.4,1.4c-0.4,0.4-0.6,0.9-0.6,1.5v10.3v10.3c0,0.5,0.2,1.1,0.6,1.5l0.8,0.8c0.4,0.4,0.9,0.6,1.4,0.6
	C27,46.7,31.4,46.7,31.4,46.7z"/>
<line class="st3" x1="36.6" y1="20.4" x2="37.8" y2="20.4"/>
<polyline class="st3" points="38.5,23.3 31.4,23.3 24.2,23.3 "/>
<polyline class="st3" points="38.5,43.9 31.4,43.9 24.2,43.9 "/>
<line class="st3" x1="27.2" y1="26.1" x2="27.2" y2="27.4"/>
<line class="st3" x1="27.2" y1="30.3" x2="27.2" y2="33.3"/>
<g>
	<g>
		<line class="st4" x1="-87.1" y1="20.5" x2="-88.3" y2="20.5"/>
		<path class="st4" d="M-81.9,46.7h4.4c0.5,0,1.1-0.2,1.4-0.6l0.8-0.8c0.4-0.4,0.6-0.9,0.6-1.5V33.6V23.3c0-0.5-0.2-1.1-0.6-1.5
			l-1.4-1.4h-5.2h-5.2l-1.4,1.4c-0.4,0.4-0.6,0.9-0.6,1.5v10.3v10.3c0,0.5,0.2,1.1,0.6,1.5l0.8,0.8c0.4,0.4,0.9,0.6,1.4,0.6
			C-86.2,46.7-81.9,46.7-81.9,46.7z"/>
		<line class="st4" x1="-76.7" y1="20.5" x2="-75.4" y2="20.5"/>
		<polyline class="st4" points="-74.7,23.3 -81.9,23.3 -89,23.3 		"/>
		<polyline class="st4" points="-74.7,43.9 -81.9,43.9 -89,43.9 		"/>
	</g>
	<line class="st4" x1="-86.1" y1="26.1" x2="-86.1" y2="27.4"/>
	<line class="st4" x1="-86.1" y1="30.3" x2="-86.1" y2="33.3"/>
</g>
</svg>
