<?xml version="1.0" encoding="utf-8"?>
<!-- Generator: Adobe Illustrator 21.0.2, SVG Export Plug-In . SVG Version: 6.00 Build 0)  -->
<svg version="1.1" id="Layer_1" xmlns="http://www.w3.org/2000/svg" xmlns:xlink="http://www.w3.org/1999/xlink" x="0px" y="0px"
	 viewBox="0 0 53.6 47.7" style="enable-background:new 0 0 53.6 47.7;" xml:space="preserve">
<style type="text/css">
	.st0{fill:#16639F;}
	.st1{fill:#16639F;stroke:#6D9B32;stroke-width:2;stroke-linecap:round;stroke-miterlimit:10;}
</style>
<g>
	<path class="st0" d="M34,47.7c-5.6,0-13.4-0.2-21.4-1.2c-1.3-0.2-2.3-1.3-2.4-2.6c-0.1-1.3,0.6-2.5,1.8-3c14.8-5,29.2-7.1,29.3-7.1
		c1.9-0.2,3.7,0.3,5.1,1.5c1.4,1.2,2.3,2.8,2.5,4.6s-0.3,3.6-1.5,5.1c-1.2,1.4-2.8,2.3-4.6,2.5C42.7,47.5,39.3,47.7,34,47.7z
		 M42.1,35.4c-0.2,0-0.4,0-0.5,0s-14.3,2.1-28.9,7c-0.5,0.2-0.8,0.7-0.7,1.3l0,0c0.1,0.5,0.5,1,1,1.1c15.3,1.9,29.6,1,29.8,1
		c1.4-0.1,2.6-0.8,3.5-1.9c0.9-1.1,1.3-2.4,1.1-3.8C47,37.4,44.7,35.4,42.1,35.4z"/>
</g>
<g>
	<path class="st0" d="M51.6,44.1c-0.5,0-1.3-0.1-2.6-0.7c0,0-0.7-0.4-1.3-0.8c-0.4-0.3-0.5-0.8-0.2-1.2s0.8-0.5,1.2-0.2
		c0.5,0.4,1.1,0.7,1.1,0.7c0.4,0.2,0.7,0.3,0.9,0.4c-0.1-0.2-0.3-0.5-0.6-0.9c-0.2-0.2-0.2-0.5-0.1-0.8c0.1-0.3,0.3-0.5,0.5-0.6
		c0.4-0.1,0.7-0.3,1-0.4c-0.3-0.1-0.6-0.1-1.1-0.2c-0.3,0-0.5-0.2-0.6-0.4s-0.1-0.5,0-0.8c0.2-0.4,0.3-0.7,0.4-1
		c-0.2,0.1-0.5,0.3-0.9,0.6l0,0c0,0-0.5,0.4-0.9,0.9c-0.3,0.3-0.8,0.4-1.2,0.1c-0.3-0.3-0.4-0.8-0.1-1.2c0.5-0.6,1.1-1,1.1-1.1
		c1.8-1.4,2.8-1.5,3-1.4c0.3,0,0.5,0.2,0.6,0.5c0.1,0.2,0.3,0.9-0.1,2.2c1.4,0.3,1.8,0.9,1.9,1.1c0.2,0.2,0.2,0.5,0.1,0.8
		c-0.1,0.2-0.4,0.8-1.7,1.4c0.7,1.2,0.7,1.9,0.6,2.1C52.3,44.1,51.6,44.1,51.6,44.1z"/>
</g>
<g>
	<path class="st0" d="M37,40.6c-0.4,0-0.8-0.4-0.8-0.8c-0.1-3.1,0.4-4.7,0.4-4.8c0.1-0.4,0.6-0.7,1.1-0.5c0.4,0.1,0.7,0.6,0.5,1.1
		l0,0c0,0-0.5,1.4-0.3,4.2C37.9,40.2,37.5,40.6,37,40.6L37,40.6z"/>
</g>
<g>
	<path class="st0" d="M34.1,47.7c-0.3,0-0.6-0.1-0.7-0.4c0-0.1-0.9-1.5-1.4-4.5c-0.1-0.5,0.2-0.9,0.7-1s0.9,0.2,1,0.7
		c0.4,2.6,1.2,3.9,1.2,3.9c0.2,0.4,0.1,0.9-0.3,1.1C34.3,47.7,34.2,47.7,34.1,47.7z"/>
</g>
<g>
	<path class="st0" d="M27.9,42.1c-0.5,0-0.8-0.4-0.8-0.8C27,38.5,27.5,37,27.5,37c0.1-0.4,0.6-0.7,1.1-0.5c0.4,0.1,0.7,0.6,0.5,1.1
		c0,0-0.4,1.3-0.4,3.7C28.8,41.7,28.4,42.1,27.9,42.1C28,42.1,27.9,42.1,27.9,42.1z"/>
</g>
<g>
	<path class="st0" d="M3.3,46.1c-0.2,0-0.4,0-0.7-0.1c-1.3-0.3-2.4-1.3-2.6-2.7c-0.3-1.5,0.5-3,1.9-3.6C2.1,31.9,2.5,22.1,2.5,22
		c0-0.5,0.4-0.8,0.9-0.8s0.8,0.4,0.8,0.9c0,0.1-0.5,9.9-0.6,17.8c0,0.6-0.4,1.2-1,1.4c-0.7,0.3-1.1,1.1-1,1.8
		c0.1,0.6,0.6,1.2,1.3,1.3c0.6,0.1,1.1-0.1,1.5-0.5s1-0.6,1.6-0.4c0.5,0.1,1,0.3,1.6,0.4c0.5,0.1,0.7,0.5,0.6,1
		c-0.1,0.5-0.5,0.7-1,0.6c-0.6-0.1-1.2-0.3-1.7-0.4C5.1,45.8,4.2,46.1,3.3,46.1z"/>
</g>
<g>
	<path class="st0" d="M20.1,22.9H2.8c-0.9,0-1.6-0.6-1.6-1.4v-3.8c0-0.8,0.7-1.4,1.6-1.4h19.1c0.5,0,0.8,0.4,0.8,0.8
		s-0.4,0.8-0.8,0.8h-19v3.2h17.2c0.5,0,0.8,0.4,0.8,0.8S20.6,22.9,20.1,22.9z"/>
</g>
<g>
	<path class="st0" d="M6,17.8c-0.2,0-0.4-0.1-0.6-0.2c-0.3-0.3-0.3-0.9,0-1.2c4.8-5,10.9-4.9,11.2-4.8c0.1,0,3.2-0.1,6.8,1.7
		c0.4,0.2,0.6,0.7,0.4,1.1c-0.3,0.3-0.8,0.5-1.2,0.3c-3.2-1.5-6-1.5-6-1.5c-0.1,0-5.7-0.1-10,4.3C6.4,17.7,6.2,17.8,6,17.8z"/>
</g>
<g>
	<path class="st0" d="M10.3,34.7c-0.2,0-0.4-0.1-0.6-0.2c-0.3-0.3-0.3-0.9,0-1.2l3.1-3.1c0.3-0.3,0.9-0.3,1.2,0s0.3,0.9,0,1.2
		l-3.1,3.1C10.8,34.6,10.5,34.7,10.3,34.7z"/>
</g>
<g>
	<path class="st0" d="M16.6,34.7c-0.2,0-0.4-0.1-0.6-0.2l-3.1-3.1c-0.3-0.3-0.3-0.9,0-1.2s0.9-0.3,1.2,0l3.1,3.1
		c0.3,0.3,0.3,0.9,0,1.2C17,34.6,16.8,34.7,16.6,34.7z"/>
</g>
<g>
	<path class="st0" d="M16.6,34.7c-0.2,0-0.4-0.1-0.6-0.2c-0.3-0.3-0.3-0.9,0-1.2l3.1-3.1c0.3-0.3,0.9-0.3,1.2,0s0.3,0.9,0,1.2
		l-3.1,3.1C17,34.6,16.8,34.7,16.6,34.7z"/>
</g>
<g>
	<path class="st0" d="M20.1,32c-0.2,0-0.4-0.1-0.6-0.2l-0.4-0.4c-0.3-0.3-0.3-0.9,0-1.2s0.9-0.3,1.2,0l0.4,0.4
		c0.3,0.3,0.3,0.9,0,1.2C20.6,31.9,20.4,32,20.1,32z"/>
</g>
<g>
	<g>
		<path class="st0" d="M23.6,35.8c-0.5,0-0.8-0.4-0.8-0.8V22.4c0-0.2,0.1-3.4,1.5-5.7c0.2-0.3,0.4-0.6,0.5-0.9
			c1-1.6,1.5-2.4,1.5-4.4c0-1.9,0.6-3.7,1.1-5c0.2-0.5,0.4-1.1,0.4-1.3V5c0,0,0.2-1.3-0.2-2.3c-0.5-1.4,0.1-2.3,0.6-2.5L28.4,0h7.7
			l0.2,0.1c0.4,0.3,1.1,1.2,0.6,2.5c-0.4,1-0.2,2.3-0.2,2.3V5c0,0.2,0.2,0.8,0.4,1.3c0.5,1.3,1.1,3.1,1.1,5c0,2.1,0.5,2.9,1.5,4.4
			c0.2,0.3,0.3,0.6,0.5,0.9c1.4,2.4,1.5,5.6,1.5,5.7V31c0,0.5-0.4,0.8-0.8,0.8c-0.5,0-0.8-0.4-0.8-0.8v-8.7c0,0-0.1-2.9-1.3-4.9
			c-0.2-0.3-0.4-0.6-0.5-0.8c-1-1.7-1.7-2.8-1.7-5.3c0-1.6-0.6-3.2-1-4.4c-0.3-0.8-0.5-1.3-0.5-1.8c0-0.3-0.2-1.8,0.3-3.2
			c0.1-0.2,0.1-0.3,0.1-0.4h-6.4c0,0.1,0,0.2,0.1,0.4c0.5,1.3,0.4,2.8,0.3,3.2c0,0.5-0.2,1-0.5,1.8c-0.4,1.2-1,2.8-1,4.4
			c0,2.5-0.7,3.6-1.7,5.3c-0.2,0.3-0.3,0.5-0.5,0.8c-1.2,2-1.3,4.9-1.3,4.9v12.5C24.4,35.4,24.1,35.8,23.6,35.8z"/>
	</g>
	<g>
		<path class="st1" d="M32.3,46.3"/>
	</g>
	<g>
		<path class="st0" d="M27.8,34.7c-0.5,0-0.8-0.4-0.8-0.8v-8.1c0-0.9,0.8-1.7,1.7-1.7H36c0.9,0,1.7,0.8,1.7,1.7v6.1
			c0,0.5-0.4,0.8-0.8,0.8c-0.5,0-0.8-0.4-0.8-0.8v-6.1h-7.4v8.1C28.6,34.3,28.2,34.7,27.8,34.7z"/>
	</g>
	<g>
		<path class="st0" d="M27.7,19c-0.1,0-0.3,0-0.4-0.1c-0.4-0.2-0.5-0.8-0.3-1.2c0.2-0.3,0.4-0.6,0.5-0.9c1-1.6,1.5-2.4,1.5-4.4
			c0-0.5,0.4-0.8,0.8-0.8s0.8,0.4,0.8,0.8c0,2.5-0.7,3.6-1.7,5.3c-0.2,0.3-0.3,0.5-0.5,0.8C28.3,18.8,28,19,27.7,19z"/>
	</g>
	<g>
		<path class="st0" d="M30.2,10.5c-0.5,0-0.8-0.4-0.8-0.8c0-0.4,0.1-0.8,0.2-1.2c0-0.1,0.1-0.3,0.1-0.4c0.1-0.5,0.6-0.7,1-0.6
			c0.5,0.1,0.7,0.6,0.6,1c0,0.2-0.1,0.3-0.1,0.5C31.1,9.3,31,9.5,31,9.7C31,10.1,30.6,10.5,30.2,10.5z"/>
	</g>
</g>
</svg>
