<?xml version="1.0" encoding="utf-8"?>
<!-- Generator: Adobe Illustrator 23.0.1, SVG Export Plug-In . SVG Version: 6.00 Build 0)  -->
<svg version="1.1" id="Layer_1" xmlns="http://www.w3.org/2000/svg" xmlns:xlink="http://www.w3.org/1999/xlink" x="0px" y="0px"
	 viewBox="0 0 53.6 47.7" style="enable-background:new 0 0 53.6 47.7;" xml:space="preserve">
<style type="text/css">
	.st0{fill:none;stroke:#16639F;stroke-width:1.7;stroke-linecap:round;stroke-linejoin:round;stroke-miterlimit:10;}
	.st1{fill:none;stroke:#16639F;stroke-width:1.7;stroke-linecap:round;stroke-miterlimit:10;}
	.st2{fill:none;stroke:#16639F;stroke-width:1.7;stroke-miterlimit:10;}
	.st3{fill:none;stroke:#16639F;stroke-width:1.7;stroke-linejoin:round;stroke-miterlimit:10;}
</style>
<path class="st0" d="M10,9.9c0.1-0.4,0.2-1,0.2-1.7"/>
<g>
	<path class="st1" d="M19.7,26.1V20c0,0-0.1-3.3-2.2-6.9s-1.9-5.4-1.9-5.4V4.6h-4.2c0,0-4.2,0-4.2,0v3.1c0,0,0.3,1.7-1.9,5.4
		S3.1,20,3.1,20v24.8c0,0.4,0.4,0.8,0.8,0.8h6.9"/>
	<path class="st0" d="M15.5,4.6h1V3.1c0,0-0.1-0.9-0.9-0.9c-0.8,0-4.2,0-4.2,0s-3.4,0-4.2,0S6.2,3.1,6.2,3.1v1.5h1"/>
	<path class="st1" d="M4.7,19.9"/>
	<line class="st1" x1="3.1" y1="21.2" x2="19.7" y2="21.2"/>
	<line class="st1" x1="3.1" y1="31.8" x2="7.7" y2="31.8"/>
	<path class="st0" d="M6.4,18c0.1-0.5,0.3-1.2,0.5-2c0.4-1.2,1.2-2.4,1.9-3.5"/>
</g>
<path class="st2" d="M-47.4,45.6h7.5c0.4,0,0.8-0.4,0.8-0.8V20c0,0-0.1-3.3-2.2-6.9s-1.9-5.4-1.9-5.4V4.6h-4.2c0,0-4.2,0-4.2,0v3.1
	c0,0,0.3,1.7-1.9,5.4s-2.2,6.9-2.2,6.9v24.8c0,0.4,0.4,0.8,0.8,0.8H-47.4z"/>
<path class="st3" d="M-43.2,4.6h1V3.1c0,0-0.1-0.9-0.9-0.9s-4.2,0-4.2,0s-3.4,0-4.2,0c-0.8,0-0.9,0.9-0.9,0.9v1.5h1"/>
<path class="st2" d="M-54,19.9"/>
<line class="st2" x1="-55.7" y1="21.2" x2="-39" y2="21.2"/>
<line class="st2" x1="-55.7" y1="31.8" x2="-39" y2="31.8"/>
<path class="st0" d="M-48.7,9.9c0.1-0.4,0.2-1,0.2-1.7"/>
<path class="st0" d="M-52.3,18c0.1-0.5,0.3-1.2,0.5-2c0.4-1.2,1.2-2.4,1.9-3.5"/>
<path class="st0" d="M51.6,30c-0.2-1.6-1.6-2.8-3.2-2.8h-7.2"/>
<path class="st0" d="M44.1,29.1c-0.5-1.1-1.6-1.8-2.9-1.8H24c-0.4,1.8-1.9,3.2-3.9,3.2c-1.9,0-3.5-1.4-3.9-3.2h-4.9v15.1
	c1.8,0,3.3,1.5,3.3,3.3h16.6 M16.7,39.2c-0.9,0-1.7-0.8-1.7-1.7s0.8-1.7,1.7-1.7c0.9,0,1.7,0.8,1.7,1.7S17.6,39.2,16.7,39.2z
	 M24.8,44.7c-1.5,0-2.6-1.2-2.6-2.6s1.2-2.6,2.6-2.6c1.5,0,2.6,1.2,2.6,2.6S26.2,44.7,24.8,44.7z M32,34.3c-1.9,0-3.5-1.6-3.5-3.5
	c0-1.9,1.6-3.5,3.5-3.5c1.9,0,3.5,1.6,3.5,3.5C35.5,32.7,34,34.3,32,34.3z"/>
<path class="st2" d="M-71.8,45.6h7.2c1.8,0,3.2-1.4,3.2-3.2V30.5c0-1.8-1.4-3.2-3.2-3.2h-7.2"/>
<path class="st0" d="M-68.6,31.6v-1.1c0-1.8-1.4-3.2-3.2-3.2h-17.2c-0.4,1.8-1.9,3.2-3.9,3.2c-1.9,0-3.5-1.4-3.9-3.2h-4.9v15.1
	c1.8,0,3.3,1.5,3.3,3.3h26.5c1.8,0,3.2-1.4,3.2-3.2v-6.7 M-96.4,39.2c-0.9,0-1.7-0.8-1.7-1.7s0.8-1.7,1.7-1.7c0.9,0,1.7,0.8,1.7,1.7
	S-95.4,39.2-96.4,39.2z M-88.2,44.7c-1.5,0-2.6-1.2-2.6-2.6s1.2-2.6,2.6-2.6c1.5,0,2.6,1.2,2.6,2.6S-86.8,44.7-88.2,44.7z M-81,34.3
	c-1.9,0-3.5-1.6-3.5-3.5c0-1.9,1.6-3.5,3.5-3.5c1.9,0,3.5,1.6,3.5,3.5C-77.5,32.7-79.1,34.3-81,34.3z M-75.3,42.5
	c-1.2,0-2.2-1-2.2-2.2s1-2.2,2.2-2.2s2.2,1,2.2,2.2S-74.1,42.5-75.3,42.5z"/>
<path class="st2" d="M41.6,44.8c0,0,3.2,2.4,6.7-0.9s3.3-7.3,3.3-7.3s0-3.2-1.8-4.4s-4.7,0.1-4.7,0.1s-3.7,1.5-5.4,6
	C38.1,42.8,41.6,44.8,41.6,44.8z"/>
<path class="st1" d="M46.1,41.4c0.7-0.7,1.3-1.5,1.6-2.2"/>
<path class="st1" d="M44.4,42.3c0.5-0.1,1.1-0.3,1.7-0.9"/>
<path class="st1" d="M37.7,35.9c-2.1,0.3-3.5,1.3-3.5,1.3s-2.4,1.5-2.4,3.6s2.4,3.6,2.4,3.6s1.6,1.1,4.1,1.3"/>
<g>
	<path class="st2" d="M-29.2,45.7c0,0,4,0.2,5.1-4.4s-1.2-7.9-1.2-7.9s-1.7-2.7-3.9-2.7s-3.9,2.7-3.9,2.7s-2.3,3.3-1.2,7.9
		S-29.2,45.7-29.2,45.7z"/>
	<path class="st1" d="M-26.5,40.8c0.6-2.4-0.2-4.6-0.2-4.6"/>
	<path class="st1" d="M-29.2,43.1c0,0,2.1,0.1,2.7-2.3"/>
</g>
</svg>
