<?xml version="1.0" encoding="utf-8"?>
<!-- Generator: Adobe Illustrator 23.0.1, SVG Export Plug-In . SVG Version: 6.00 Build 0)  -->
<svg version="1.1" id="Layer_1" xmlns="http://www.w3.org/2000/svg" xmlns:xlink="http://www.w3.org/1999/xlink" x="0px" y="0px"
	 viewBox="0 0 53.6 47.7" style="enable-background:new 0 0 53.6 47.7;" xml:space="preserve">
<style type="text/css">
	.st0{fill:#16639F;}
	.st1{fill:none;stroke:#16639F;stroke-width:1.7;stroke-linecap:round;stroke-linejoin:round;stroke-miterlimit:10;}
	.st2{fill:none;stroke:#16639F;stroke-width:2;stroke-linecap:round;stroke-linejoin:round;stroke-miterlimit:10;}
</style>
<g>
	<path class="st0" d="M34,47.7c-5.6,0-13.4-0.2-21.4-1.2c-1.3-0.2-2.3-1.3-2.4-2.6c-0.1-1.3,0.6-2.5,1.8-3c14.8-5,29.2-7.1,29.3-7.1
		c1.9-0.2,3.7,0.3,5.1,1.5c1.4,1.2,2.3,2.8,2.5,4.6s-0.3,3.6-1.5,5.1c-1.2,1.4-2.8,2.3-4.6,2.5C42.7,47.5,39.3,47.7,34,47.7z
		 M42.1,35.4c-0.2,0-0.4,0-0.5,0s-14.3,2.1-28.9,7c-0.5,0.2-0.8,0.7-0.7,1.3l0,0c0.1,0.5,0.5,1,1,1.1c15.3,1.9,29.6,1,29.8,1
		c1.4-0.1,2.6-0.8,3.5-1.9c0.9-1.1,1.3-2.4,1.1-3.8C47,37.4,44.7,35.4,42.1,35.4z"/>
</g>
<g>
	<path class="st0" d="M51.6,44.1c-0.5,0-1.3-0.1-2.6-0.7c0,0-0.7-0.4-1.3-0.8c-0.4-0.3-0.5-0.8-0.2-1.2s0.8-0.5,1.2-0.2
		c0.5,0.4,1.1,0.7,1.1,0.7c0.4,0.2,0.7,0.3,0.9,0.4c-0.1-0.2-0.3-0.5-0.6-0.9c-0.2-0.2-0.2-0.5-0.1-0.8c0.1-0.3,0.3-0.5,0.5-0.6
		c0.4-0.1,0.7-0.3,1-0.4c-0.3-0.1-0.6-0.1-1.1-0.2c-0.3,0-0.5-0.2-0.6-0.4s-0.1-0.5,0-0.8c0.2-0.4,0.3-0.7,0.4-1
		c-0.2,0.1-0.5,0.3-0.9,0.6l0,0c0,0-0.5,0.4-0.9,0.9c-0.3,0.3-0.8,0.4-1.2,0.1c-0.3-0.3-0.4-0.8-0.1-1.2c0.5-0.6,1.1-1,1.1-1.1
		c1.8-1.4,2.8-1.5,3-1.4c0.3,0,0.5,0.2,0.6,0.5c0.1,0.2,0.3,0.9-0.1,2.2c1.4,0.3,1.8,0.9,1.9,1.1c0.2,0.2,0.2,0.5,0.1,0.8
		c-0.1,0.2-0.4,0.8-1.7,1.4c0.7,1.2,0.7,1.9,0.6,2.1C52.3,44.1,51.6,44.1,51.6,44.1z"/>
</g>
<g>
	<path class="st0" d="M37,40.6c-0.4,0-0.8-0.4-0.8-0.8c-0.1-3.1,0.4-4.7,0.4-4.8c0.1-0.4,0.6-0.7,1.1-0.5c0.4,0.1,0.7,0.6,0.5,1.1
		l0,0c0,0-0.5,1.4-0.3,4.2C37.9,40.2,37.5,40.6,37,40.6L37,40.6z"/>
</g>
<g>
	<path class="st0" d="M34.1,47.7c-0.3,0-0.6-0.1-0.7-0.4c0-0.1-0.9-1.5-1.4-4.5c-0.1-0.5,0.2-0.9,0.7-1s0.9,0.2,1,0.7
		c0.4,2.6,1.2,3.9,1.2,3.9c0.2,0.4,0.1,0.9-0.3,1.1C34.3,47.7,34.2,47.7,34.1,47.7z"/>
</g>
<g>
	<path class="st0" d="M27.9,42.1c-0.5,0-0.8-0.4-0.8-0.8C27,38.5,27.5,37,27.5,37c0.1-0.4,0.6-0.7,1.1-0.5c0.4,0.1,0.7,0.6,0.5,1.1
		c0,0-0.4,1.3-0.4,3.7C28.8,41.7,28.4,42.1,27.9,42.1C28,42.1,27.9,42.1,27.9,42.1z"/>
</g>
<g>
	<g>
		<path class="st0" d="M25.6,20.4c-0.4-0.2-0.5-0.8-0.3-1.2c2.4-3.8,7.5-5,11.3-2.5c0.4,0.2,0.5,0.8,0.3,1.2
			c-0.2,0.4-0.8,0.5-1.2,0.3c-3-1.9-7-1-8.9,2C26.5,20.6,26,20.7,25.6,20.4z"/>
	</g>
	<g>
		<path class="st0" d="M38.9,24.8c-0.1,0-0.1-0.1-0.2-0.2c-0.3-0.3-0.3-0.9,0.1-1.2c1.9-1.7,4.6-2.4,7.2-1.9c0.5,0.1,0.7,0.5,0.6,1
			c-0.1,0.5-0.5,0.7-1,0.6c-2-0.4-4.1,0.1-5.7,1.5C39.6,24.9,39.2,25,38.9,24.8z"/>
	</g>
	<g>
		<path class="st0" d="M34.2,10.2C33.8,10,33.7,9.4,33.9,9c1.4-2.1,4.2-2.8,6.3-1.4c0.4,0.2,0.5,0.8,0.3,1.2
			c-0.2,0.4-0.8,0.5-1.2,0.3c-1.4-0.9-3.2-0.5-4,0.9C35.1,10.3,34.6,10.5,34.2,10.2z"/>
	</g>
	<g>
		<path class="st0" d="M50.2,31.9c0.9-2.3,0.4-5-1.3-6.8l-0.7-0.8l0.9-0.5c0.4-0.2,0.8-0.6,1-1c0.9-1.4,0.5-3.2-0.9-4
			c-0.4-0.3-0.9-0.4-1.3-0.4l-1.1-0.1l0.3-1c1.4-4.1-0.2-8.6-3.9-10.9C39.5,4,34.7,4.5,31.6,7.6l-0.9,0.9l-0.5-1.1
			c-0.2-0.5-0.6-1-1.1-1.3c-1.4-0.9-3.2-0.5-4,0.9c-0.3,0.5-0.5,1.1-0.4,1.8l0.1,1l-1-0.1c-2.5-0.3-5,0.8-6.4,3c-1.9,3-1,7,2,8.9
			c1.6,1,3.6,1.3,5.4,0.7l1.2-0.4l-0.1,1.2c-0.2,2.4,1,4.7,3,6c2.3,1.5,5.4,1.3,7.5-0.4l1.4-1.1l-0.1,1.8c0,0.7,0.1,1.4,0.3,2
			l-1.6,0.5c-0.1-0.3-0.2-0.7-0.2-1.1c-2.6,1.4-5.7,1.3-8.2-0.3c-2.2-1.4-3.6-3.8-3.8-6.4c-2,0.3-4-0.1-5.7-1.2
			c-3.8-2.4-5-7.5-2.5-11.3c1.5-2.4,4.3-3.9,7.1-3.8c0.1-0.6,0.3-1.2,0.7-1.8C25,3.9,27.9,3.3,30,4.6c0.4,0.3,0.8,0.6,1.2,1
			c3.7-3,8.8-3.4,12.9-0.8c4,2.6,6,7.4,4.9,11.9c0.4,0.1,0.8,0.3,1.1,0.5c2.1,1.4,2.8,4.2,1.4,6.3c-0.2,0.4-0.5,0.7-0.8,1
			c1.7,2.3,2.1,5.3,1.1,7.9L50.2,31.9z"/>
	</g>
	<g>
		<polygon class="st0" points="23.7,27.6 25.7,23.4 24.2,22.7 22.2,26.8 		"/>
		<polygon class="st0" points="33.8,34 36.6,30.5 35.3,29.4 32.4,33.1 		"/>
	</g>
	<g>
		<path class="st0" d="M24.3,31.8c-0.4-0.2-0.5-0.7-0.3-1.1l1.5-3c0.2-0.4,0.7-0.6,1.1-0.4c0.4,0.2,0.6,0.7,0.4,1.1l-1.5,3
			C25.3,31.9,24.8,32.1,24.3,31.8C24.3,31.9,24.3,31.9,24.3,31.8z"/>
	</g>
	<g>
		<path class="st0" d="M28.1,34.3C28.1,34.2,28,34.2,28.1,34.3c-0.4-0.3-0.5-0.9-0.2-1.2l2-2.6c0.3-0.4,0.8-0.4,1.2-0.1
			c0.4,0.3,0.4,0.8,0.1,1.2l-2,2.6C28.9,34.4,28.5,34.5,28.1,34.3z"/>
	</g>
</g>
<path class="st1" d="M9.1,46.7c-1,0.1-1.6-0.4-1.6-0.4s-5.3-3.2-6.2-8.2S2.2,30,2.2,30s1-2.1,3.4-2.6s5.9,1.3,5.9,1.3
	s3.5-1.7,5.9-1.3s3.4,2.6,3.4,2.6s1.2,2,1.2,5.3"/>
<path class="st1" d="M13.7,22.9c0,0-2.7,1-2.2,5.8"/>
<path class="st1" d="M10.4,25.3C6.6,26.9,4.2,20,4.2,20S11.3,21.3,10.4,25.3z"/>
<path class="st0" d="M51.8,32.3c0,0.1,0,0.2-0.1,0.3c-0.1,0.3-0.4,0.5-0.8,0.5c-0.5,0-0.8-0.4-0.8-0.8c0-0.5,0.4-0.8,0.8-0.8
	C51.4,31.4,51.8,31.8,51.8,32.3z"/>
<path class="st0" d="M38,31.6c0,0.1,0,0.2-0.1,0.3c-0.1,0.3-0.4,0.5-0.8,0.5c-0.5,0-0.8-0.4-0.8-0.8c0-0.5,0.4-0.8,0.8-0.8
	c0.4,0,0.8,0.3,0.8,0.7C38,31.4,38,31.5,38,31.6z"/>
<path class="st0" d="M33.9,33.6c0,0.1,0,0.2-0.1,0.3c-0.1,0.3-0.4,0.5-0.8,0.5c-0.5,0-0.8-0.4-0.8-0.8c0-0.5,0.4-0.8,0.8-0.8
	c0.4,0,0.8,0.3,0.8,0.7C33.9,33.4,33.9,33.5,33.9,33.6z"/>
<path class="st0" d="M23.8,27.2c0,0.1,0,0.2-0.1,0.3c-0.1,0.3-0.4,0.5-0.8,0.5c-0.5,0-0.8-0.4-0.8-0.8c0-0.5,0.4-0.8,0.8-0.8
	c0.4,0,0.8,0.3,0.8,0.7C23.8,27.1,23.8,27.2,23.8,27.2z"/>
<path class="st2" d="M-21.5,46.3c0,0-0.5,0-1.8,0.3c-1.3,0.4-2.2-0.4-2.2-0.4s-5.3-3.2-6.2-8.2c-0.9-4.9,0.9-8.1,0.9-8.1
	s1-2.1,3.4-2.6s5.9,1.3,5.9,1.3s3.5-1.7,5.9-1.3s3.4,2.6,3.4,2.6s1.8,3.2,0.9,8.1s-6.2,8.2-6.2,8.2s-0.9,0.7-2.2,0.4
	C-21,46.3-21.5,46.3-21.5,46.3z"/>
<path class="st2" d="M-19.3,22.9c0,0-2.7,1-2.2,5.8"/>
<path class="st2" d="M-22.6,25.3c-3.7,1.6-6.2-5.3-6.2-5.3S-21.6,21.3-22.6,25.3z"/>
</svg>
