<?xml version="1.0" encoding="utf-8"?>
<!-- Generator: Adobe Illustrator 23.0.1, SVG Export Plug-In . SVG Version: 6.00 Build 0)  -->
<svg version="1.1" id="Layer_1" xmlns="http://www.w3.org/2000/svg" xmlns:xlink="http://www.w3.org/1999/xlink" x="0px" y="0px"
	 viewBox="0 0 53.6 47.7" style="enable-background:new 0 0 53.6 47.7;" xml:space="preserve">
<style type="text/css">
	.st0{fill:none;stroke:#16639F;stroke-width:1.7;stroke-linejoin:round;stroke-miterlimit:10;}
	.st1{fill:none;stroke:#16639F;stroke-width:1.7;stroke-miterlimit:10;}
	.st2{fill:none;stroke:#16639F;stroke-width:1.7;stroke-linecap:round;stroke-miterlimit:10;}
	.st3{display:none;}
	.st4{display:inline;fill:none;stroke:#16639F;stroke-width:1.7;stroke-linecap:round;stroke-miterlimit:10;}
</style>
<g>
	<path class="st0" d="M8.9,34c-0.1-0.6-0.4-1.2-0.4-1.2C7.8,31.2,7.2,31,7.2,31l0,0c0,0-0.5,0.4-0.6,2.2c-1.6-0.7-2.3-0.3-2.3-0.3
		s-0.1,0.7,1.1,2c-1.6,0.7-1.8,1.3-1.8,1.3l0,0c0,0,0.4,0.5,2.2,0.6c0,0,0.6,0,1.2-0.1"/>
	<path class="st1" d="M26.8,46.8c15.5-0.1,18.8-6.2,18.8-6.2s1.7-3-0.6-6s-5.7-0.9-5.7-0.9c-5.2,3.2-12.6,3.4-12.6,3.4
		s-7.3-0.2-12.6-3.4c0,0-3.4-2.1-5.7,0.9s-0.6,6-0.6,6S11.3,46.7,26.8,46.8z"/>
	<path class="st0" d="M44.7,34c0.1-0.6,0.4-1.2,0.4-1.2c0.7-1.6,1.3-1.8,1.3-1.8l0,0c0,0,0.5,0.4,0.6,2.2c1.6-0.7,2.3-0.3,2.3-0.3
		s0.1,0.7-1.1,2c1.6,0.7,1.8,1.3,1.8,1.3l0,0c0,0-0.4,0.5-2.2,0.6c0,0-0.6,0-1.2-0.1"/>
	<path class="st2" d="M17.8,42.3c2.2,0.6,5.1,1.1,8.6,1.2"/>
	<path class="st2" d="M11.4,39.3c0.6,0.5,1.4,1,2.4,1.5"/>
</g>
<path class="st2" d="M22.6,33c0-3.9,2.6-7.6,4.2-8.9c1.8-1.5,4.9-4.1,12.1-6l5.2-8.4c0,0-2-3.1-0.6-4.7s4.1-2.1,5.4,1"/>
<path class="st2" d="M48.8,5.9c3.3-0.2,4.1,2.5,3.3,4.4s-4.5,1.5-4.5,1.5l-5.2,8.4c0.8,4,0.9,7,0.7,9.3"/>
<line class="st2" x1="38.9" y1="18" x2="42.4" y2="20.2"/>
<g>
	<path class="st0" d="M-50.7,34c-0.1-0.6-0.4-1.2-0.4-1.2c-0.7-1.6-1.3-1.8-1.3-1.8l0,0c0,0-0.5,0.4-0.6,2.2
		c-1.6-0.7-2.3-0.3-2.3-0.3s-0.1,0.7,1.1,2c-1.6,0.7-1.8,1.3-1.8,1.3l0,0c0,0,0.4,0.5,2.2,0.6c0,0,0.6,0,1.2-0.1"/>
	<path class="st1" d="M-32.8,46.8c15.5-0.1,18.8-6.2,18.8-6.2s1.7-3-0.6-6s-5.7-0.9-5.7-0.9c-5.2,3.2-12.6,3.4-12.6,3.4
		s-7.3-0.2-12.6-3.4c0,0-3.4-2.1-5.7,0.9s-0.6,6-0.6,6S-48.3,46.7-32.8,46.8z"/>
	<path class="st0" d="M-14.9,34c0.1-0.6,0.4-1.2,0.4-1.2c0.7-1.6,1.3-1.8,1.3-1.8l0,0c0,0,0.5,0.4,0.6,2.2c1.6-0.7,2.3-0.3,2.3-0.3
		s0.1,0.7-1.1,2c1.6,0.7,1.8,1.3,1.8,1.3l0,0c0,0-0.4,0.5-2.2,0.6c0,0-0.6,0-1.2-0.1"/>
	<path class="st2" d="M-41.8,42.3c2.2,0.6,5.1,1.1,8.6,1.2"/>
	<path class="st2" d="M-48.2,39.3c0.6,0.5,1.4,1,2.4,1.5"/>
</g>
<circle class="st2" cx="32.9" cy="24.8" r="0.1"/>
<path class="st2" d="M-63.8,5.9c3.3-0.2,4.1,2.5,3.3,4.4s-4.5,1.5-4.5,1.5l-5.2,8.4c1.4,7.3,0.5,11.2-0.1,13.5s-3.3,7.1-7.5,8.3
	c-4.3,1.2-7-0.8-7-0.8l-1.3-0.8c0,0-3-1.5-3.8-5.9s2.3-8.9,4.1-10.4c1.8-1.5,4.9-4.1,12.1-6l5.2-8.4c0,0-2-3.1-0.6-4.7
	S-65,2.9-63.8,5.9"/>
<line class="st2" x1="-73.7" y1="18" x2="-70.2" y2="20.2"/>
<circle class="st2" cx="-79.7" cy="24.8" r="0.1"/>
<circle class="st2" cx="-77.9" cy="32" r="0.2"/>
<circle class="st2" cx="-82.9" cy="33" r="0.3"/>
<circle class="st2" cx="-76.3" cy="37.4" r="0.2"/>
<circle class="st2" cx="36.6" cy="30.3" r="0.1"/>
<path class="st2" d="M32.8,32c0.1,0,0.1,0,0.1,0.1s0,0.1-0.1,0.1s-0.1,0-0.1-0.1S32.7,32,32.8,32z"/>
<path class="st1" d="M-38.5-16.7c0,0-13.3-0.2-13.3,23.3s19.1,21.8,19.1,21.8s16.1,0.3,16.1-13.3c0,0,0.5-5.9-4.5-10.9
	c0,0-7.2-7.6-7.9-14.2C-29.6-16.7-38.5-16.7-38.5-16.7z"/>
<line class="st2" x1="-48.6" y1="1.6" x2="-34.4" y2="-12.6"/>
<line class="st2" x1="-47.9" y1="13.5" x2="-30.4" y2="-4"/>
<line class="st2" x1="-43.4" y1="21.7" x2="-25.5" y2="3.9"/>
<line class="st2" x1="-34.1" y1="25" x2="-20.2" y2="10.9"/>
<g class="st3">
	<path class="st4" d="M28.3,18.9c-1.9-2.3-5.4-7.1-5.9-11.4c-0.6-6.1-8.6-6.1-8.6-6.1S1.9,1.2,1.9,22.4c0,2.8,0.3,5.2,0.8,7.3"/>
	<line class="st4" x1="5.2" y1="17.4" x2="17.3" y2="5.4"/>
	<line class="st4" x1="5.8" y1="28.1" x2="20.7" y2="13.2"/>
	<line class="st4" x1="15.1" y1="30.3" x2="25.1" y2="20.4"/>
</g>
<path class="st2" d="M9.9,29.9c0-0.3,0.1-0.6,0.1-0.9c0.3-3.5-2-7.4-2.8-7.9c-2.1-1.5-4.2-4.6-4.4-5l-0.1-0.1l-0.1-0.1
	C2.4,15.3,0.3,10.9,3,7.4c1.3-1.7,1.8-2.1,2.8-2.8C6,4.5,6.4,4.2,6.9,3.8c2.4-1.9,6.1-2.1,7.6-2.1l0.3,0c7.6,0.2,14.4,3.3,18.6,8.4
	c1.3,1.6,2.3,3.4,3.1,5.2"/>
<path class="st2" d="M33.7,15.8c-0.7-1.4-1.5-2.8-2.5-4.1c-3.4-4.1-9.1-7.1-16.4-7.3c0,0-4-0.1-6.1,1.5S6.9,7,5.2,9
	c-1.3,1.6-0.6,4-0.2,4.9c0.1,0.3,0.2,0.5,0.4,0.7c0.5,0.8,2.1,2.9,3.5,3.9c1.7,1.3,4.4,6.1,3.9,10.5c0,0.1,0,0.3,0,0.4"/>
<circle class="st1" cx="14.5" cy="12.3" r="3.1"/>
<line class="st2" x1="15.6" y1="21.2" x2="25.2" y2="12.3"/>
<line class="st2" x1="17.4" y1="26.6" x2="29.1" y2="15.7"/>
<g>
	<path class="st1" d="M-76.5-1.8c-5.5,0-8.4-2.5-8.4-7.3l0-0.3c0-1.1,0.1-2.2,0.3-3.7c0.1-1,0.3-2.3,0.5-3.9c0-0.3,0.1-0.6,0.1-0.9
		c0.3-3.5-2-7.4-2.8-7.9c-2.1-1.5-4.2-4.6-4.4-5l-0.1-0.1l-0.1-0.1c-0.3-0.5-2.4-4.9,0.3-8.4c1.3-1.7,1.8-2.1,2.8-2.8
		c0.3-0.2,0.7-0.5,1.2-0.9c2.4-1.9,6.1-2.1,7.6-2.1l0.3,0c7.6,0.2,14.4,3.3,18.6,8.4c1.3,1.6,2.3,3.4,3.1,5.2c1.5,3.2,2,6,2.1,6.2
		c0.1,0.3,0.7,3.4-0.2,8.3c-1,5.4-6.5,9.5-7.4,10.1C-63.6-6.4-70-1.8-76.5-1.8z"/>
	<path class="st1" d="M-78.8-42.3c0,0-4-0.1-6.1,1.5c-2,1.6-1.8,1-3.5,3.1c-1.3,1.6-0.6,4-0.2,4.9c0.1,0.3,0.2,0.5,0.4,0.7
		c0.5,0.8,2.1,2.9,3.5,3.9c1.7,1.3,4.4,6.1,3.9,10.5c0,0.1,0,0.3,0,0.4c-0.4,4.1-0.9,6.2-0.9,7.7c0,1.5-0.4,4.8,5.5,4.8
		c5.9,0,11.9-4.6,11.9-4.6s5.4-3.8,6.2-8.3c0.8-4.5,0.2-7.2,0.2-7.2s-0.6-2.9-2.1-6.1c-0.7-1.4-1.5-2.8-2.5-4.1
		C-65.8-39.1-71.4-42.1-78.8-42.3z"/>
	<circle class="st1" cx="-78.9" cy="-34.1" r="3"/>
</g>
</svg>
