<svg xmlns="http://www.w3.org/2000/svg" width="81" height="81.82" viewBox="0 0 81 81.82">
  <path id="Icon_ionic-ios-pricetag" data-name="Icon ionic-ios-pricetag" d="M75.992,3.375H52.943a2.7,2.7,0,0,0-1.913.8L4.95,50.724a5.506,5.506,0,0,0,0,7.711L26.893,80.6a5.372,5.372,0,0,0,7.633,0L80.587,34.069a2.754,2.754,0,0,0,.788-1.933V8.832A5.4,5.4,0,0,0,75.992,3.375ZM67.046,24.558A6.061,6.061,0,1,1,72.354,19.2,6.038,6.038,0,0,1,67.046,24.558Z" transform="translate(-1.875 -1.875)" fill="none" stroke="#4c84ad" stroke-width="3"/>
</svg>
