<?xml version="1.0" encoding="utf-8"?>
<!-- Generator: Adobe Illustrator 21.0.2, SVG Export Plug-In . SVG Version: 6.00 Build 0)  -->
<svg version="1.1" id="Layer_1" xmlns="http://www.w3.org/2000/svg" xmlns:xlink="http://www.w3.org/1999/xlink" x="0px" y="0px"
	 viewBox="0 0 560 320" style="enable-background:new 0 0 560 320;" xml:space="preserve">
<style type="text/css">
	.st0{fill:#2A2A2A;}
</style>
<g>
	<g>
		<path class="st0" d="M463.2,134.5c-0.3,1.7-0.5,3.3-0.8,5c-0.3,1.9,1,3.7,2.9,3.9c1.9,0.3,3.7-1,3.9-2.9c0.3-1.6,0.5-3.3,0.8-4.9
			c0.1-0.5,0-1-0.1-1.5c-0.4-1.2-1.4-2.2-2.8-2.5C465.2,131.4,463.4,132.7,463.2,134.5L463.2,134.5z"/>
		<path class="st0" d="M478.2,68.4c-3.9,7-8.1,24.7-13.1,54c-0.3,1.9,0.9,3.7,2.8,4s3.7-1,4-2.8c5.9-35.1,10-47.6,12.4-51.9
			c4.4-8.1,11.8-14,20.6-16.5c3.9-1.1,7.9-1.6,11.8-1.3c-0.9,0.5-1.8,1.1-2.8,1.8c-7,4.9-13.6,12.7-18.8,22.1
			c-7.7,14-26.1,69.2-34.9,96.2l-3.6-2c-1.7-0.9-3.8-0.3-4.7,1.4L419.7,232c-0.9,1.7-0.3,3.8,1.4,4.7l18.3,10.1
			c0.8,0.4,1.7,0.5,2.6,0.3c0.9-0.3,1.6-0.9,2.1-1.7l32.2-58.6c0.4-0.8,0.5-1.7,0.3-2.6c-0.3-0.9-0.9-1.6-1.7-2.1l-0.9-0.5
			c27.1-22.7,69.2-59.3,76.8-73.1c5.3-9.7,6.6-20.9,3.5-31.5s-10.1-19.4-19.8-24.8c-9.7-5.3-20.9-6.6-31.5-3.5
			C492.4,51.7,483.6,58.7,478.2,68.4L478.2,68.4z M468.7,186.4L439.8,239l-12.3-6.7l28.9-52.6L468.7,186.4z M547.8,78.8
			c2.6,8.9,1.5,18.2-2.9,26.3c-4.5,8.2-26.1,29.2-59.2,57.6c18.7-23,42.3-52.7,48.3-63.6c5.1-9.4,8.2-19.2,8.6-27.7
			c0.1-1.1,0.1-2.2,0-3.3C544.9,71.3,546.6,74.9,547.8,78.8L547.8,78.8z M527.7,57.4l-43,78.2c-0.9,1.7-0.3,3.8,1.4,4.7
			c1.7,0.9,3.8,0.3,4.7-1.4l43-78.2c1.4,2.4,2.1,5.9,1.9,10.3c-0.4,7.5-3.1,16.2-7.7,24.7c-7.2,13.1-41.7,55.6-60.1,77.9
			c9-27.6,26.3-79.4,33.6-92.5c4.6-8.4,10.6-15.5,16.7-19.8C521.6,58.8,524.9,57.5,527.7,57.4L527.7,57.4z"/>
	</g>
	<g>
		<path class="st0" d="M224.8,167.4l-10.4,10.4c-1.4,1.4-1.4,3.8,0,5.2c0.7,0.7,1.7,1.1,2.6,1.1c0.9,0,1.9-0.4,2.6-1.1l10.4-10.4
			c1.4-1.4,1.4-3.8,0-5.2C228.6,166,226.3,166,224.8,167.4L224.8,167.4z"/>
		<path class="st0" d="M321.8,108.8c-0.7-0.7-1.6-1.1-2.6-1.1c-0.8,0-1.6,0.3-2.2,0.7L305.6,97l3.6-3.6l7.4,7.4
			c0.7,0.7,1.6,1.1,2.6,1.1s1.9-0.4,2.6-1.1l69.5-69.5c1.4-1.4,1.4-3.8,0-5.2l-20-20c-0.7-0.7-1.6-1.1-2.6-1.1s-1.9,0.4-2.6,1.1
			l-69.5,69.5c-1.4,1.4-1.4,3.8,0,5.2l7.4,7.4l-3.6,3.6l-5.2-5.2c-0.7-0.7-1.6-1.1-2.6-1.1s-1.9,0.4-2.6,1.1l-5.2,5.2l-3.6-3.6
			l7.4-7.4c1.4-1.4,1.4-3.8,0-5.2L219.2,6.2c-0.7-0.7-1.6-1.1-2.6-1.1s-1.9,0.4-2.6,1.1l-20,20c-1.4,1.4-1.4,3.8,0,5.2l69.5,69.5
			c0.7,0.7,1.6,1.1,2.6,1.1s1.9-0.4,2.6-1.1l7.4-7.4l3.6,3.6l-11.4,11.4c-0.6-0.5-1.4-0.7-2.2-0.7c-1,0-1.9,0.4-2.6,1.1L194,178.3
			c-1.4,1.4-1.4,3.8,0,5.2l20,20c0.7,0.7,1.6,1.1,2.6,1.1s1.9-0.4,2.6-1.1l37.2-37.2l-2.3,63.1h-11.2c-2,0-3.7,1.6-3.7,3.7
			c0,2,1.6,3.7,3.7,3.7h99.5c2,0,3.7-1.6,3.7-3.7c0-2-1.6-3.7-3.7-3.7h-11.2l-2.3-63.1l37.2,37.2c0.7,0.7,1.6,1.1,2.6,1.1
			s1.9-0.4,2.6-1.1l20-20c1.4-1.4,1.4-3.8,0-5.2L321.8,108.8z M370.9,26.6c-1.4-1.4-3.8-1.4-5.2,0L309.2,83l-4.8-4.8L368.7,14
			l14.8,14.8L319.2,93l-4.8-4.8l56.4-56.4C372.3,30.4,372.3,28,370.9,26.6L370.9,26.6z M214.4,31.8l56.4,56.4L266,93l-64.3-64.3
			L216.6,14l64.3,64.3l-4.8,4.8l-56.4-56.4c-1.4-1.4-3.8-1.4-5.2,0C213,28,213,30.4,214.4,31.8L214.4,31.8z M368.7,195.7l-64.3-64.3
			l4.8-4.8l56.4,56.4c0.7,0.7,1.7,1.1,2.6,1.1s1.9-0.4,2.6-1.1c1.4-1.4,1.4-3.8,0-5.2l-56.4-56.4l4.8-4.8l64.3,64.3L368.7,195.7z
			 M296.3,229.4v-18.7c0-2-1.6-3.7-3.7-3.7c-2,0-3.7,1.6-3.7,3.7v18.7h-27.5l2.6-70.8l24.6-24.6c1.4-1.4,1.4-3.8,0-5.2l-7.4-7.4
			l11.4-11.4l11.4,11.4l-7.4,7.4c-1.4,1.4-1.4,3.8,0,5.2l24.6,24.6l2.6,70.8H296.3z M201.8,180.9l64.3-64.3l4.8,4.8L235.2,157
			c-1.4,1.4-1.4,3.8,0,5.2c0.7,0.7,1.7,1.1,2.6,1.1s1.9-0.4,2.6-1.1l35.6-35.6l4.8,4.8l-64.3,64.3L201.8,180.9z M309.2,116.2
			l-11.4-11.4l2.6-2.6l11.4,11.4L309.2,116.2z M292.7,99.6l-2.6-2.6l2.6-2.6l2.6,2.6L292.7,99.6z M287.5,104.8l-11.4,11.4l-2.6-2.6
			l11.4-11.4L287.5,104.8z"/>
	</g>
	<g>
		<path class="st0" d="M56.6,158.4l-1.7-2.8c-1-1.7-3.2-2.3-4.8-1.3c-1.7,1-2.3,3.2-1.3,4.8l1.7,2.8c0.5,0.8,1.3,1.4,2.2,1.6
			c0.9,0.2,1.8,0.1,2.7-0.4C57,162.3,57.6,160.1,56.6,158.4L56.6,158.4z"/>
		<path class="st0" d="M168.3,234.8L71.7,67.9c-1-1.7-3.2-2.3-4.8-1.3L4.8,102.9c-0.8,0.5-1.4,1.3-1.6,2.2s-0.1,1.9,0.4,2.7
			l60.3,104.8c0.5,0.8,1.3,1.4,2.2,1.6c0.9,0.2,1.8,0.1,2.7-0.4l47.7-27.8l4.6,7.9c-1.4,1.2-2.3,2.7-2.7,4.5c-0.5,2.2,0,4.6,1.4,6.5
			c3.1,4.4,5.4,7.6,6.2,9.1c1.5,2.6,3.5,7,5.4,11.2c2.1,4.6,4.1,8.9,5.8,11.9c0.8,1.4,2.4,3.6,5,6.9c1.4,1.8,3.3,3,5.4,3.6
			c2.5,0.7,5.3,0.4,7.7-1l11.7-6.9C168.7,238.6,169.2,236.4,168.3,234.8L168.3,234.8z M68.2,205.9l-56.7-98.7l5.2-3L43,149.3
			c0.5,0.8,1.3,1.4,2.2,1.6c0.9,0.2,1.8,0.1,2.7-0.4c1.7-1,2.3-3.2,1.3-4.8l-26.3-45.1l44.6-26l56.7,98.7L68.2,205.9z M122.5,182.4
			l5.2-3l4.5,7.8l-5.2,3L122.5,182.4z M151.7,240.3c-1.3,0.8-3.1,0.4-4-0.8c-3.1-3.9-4.1-5.5-4.5-6.1c-1.5-2.6-3.5-7-5.4-11.2
			c-2.1-4.6-4.1-9-5.8-11.9c-1-1.7-3.2-5-6.6-9.7c-0.2-0.3-0.2-0.7-0.2-0.8c0-0.2,0.2-0.5,0.5-0.7l10.1-5.9l24.6,42L151.7,240.3z"/>
		<path class="st0" d="M70.7,87.5c-1.2-2.1-3.2-3.6-5.6-4.2s-4.8-0.3-6.9,0.9c-2.1,1.2-3.6,3.2-4.2,5.6c-0.6,2.4-0.3,4.8,0.9,6.9
			c1.3,2.2,3.3,3.6,5.6,4.2s4.7,0.3,6.9-0.9C71.7,97.5,73.2,91.9,70.7,87.5L70.7,87.5z M63.8,93.9c-1,0.6-2.2,0.2-2.8-0.7
			c-0.3-0.5-0.3-1-0.2-1.5s0.5-1,0.9-1.2c1-0.6,2.2-0.2,2.8,0.7S64.8,93.3,63.8,93.9L63.8,93.9z"/>
	</g>
</g>
<g>
	<path class="st0" d="M293.3,317.9c-33.2,0-63.1-1.1-88.3-2.5c-79.3-4.5-131-13.7-131.5-13.8c-2.7-0.5-4.5-3.1-4-5.8s3.1-4.5,5.8-4
		c0.5,0.1,51.7,9.2,130.5,13.7c72.6,4.2,184.2,5.2,303.2-13.7c2.7-0.4,5.3,1.4,5.7,4.2c0.4,2.7-1.4,5.3-4.2,5.7
		C431.9,314,356.5,317.9,293.3,317.9z"/>
</g>
</svg>
